
        <svg xmlns="http://www.w3.org/2000/svg" xmlns:xlink="http://www.w3.org/1999/xlink" version="1.1" width="3180.2535783139338" 
        height="504.710019279014" viewBox="0 0 3180.2535783139338 504.710019279014">
			
			<g transform="scale(9.012678915696677) translate(10, 10)">
				<defs id="SvgjsDefs1055"></defs><g id="SvgjsG1056" featureKey="nameLeftFeature-0" transform="matrix(1.236273012805532,0,0,1.236273012805532,-2.9670550538830036,-14.143316448280597)" fill="#1073c8"><path d="M5.04 40 c-0.4 0 -0.76 -0.04 -1.16 -0.12 c-0.2 -0.04 -0.44 -0.12 -0.64 -0.2 c-0.32 -0.16 -0.56 -0.44 -0.68 -0.8 c-0.08 -0.32 -0.12 -0.68 -0.16 -1.04 l0 -1.08 l0 -10.8 l0 -10.84 c0 -0.36 0 -0.68 0.04 -1.04 c0 -0.32 0.04 -0.64 0.12 -0.96 c0.12 -0.44 0.44 -0.72 0.84 -0.92 c0.24 -0.08 0.48 -0.16 0.72 -0.16 c0.4 -0.04 0.8 -0.04 1.16 -0.04 l6 0 l7.04 0 c0.4 0 0.8 0 1.16 0.04 c0.32 0 0.6 0.04 0.88 0.12 c0.56 0.16 0.92 0.56 1.04 1.16 c0.04 0.12 0.08 0.28 0.08 0.44 l0 2.64 c0 0.24 -0.04 0.48 -0.12 0.76 c-0.12 0.4 -0.4 0.72 -0.84 0.84 c-0.24 0.08 -0.48 0.16 -0.76 0.16 c-0.36 0.04 -0.76 0.04 -1.16 0.04 l-5.32 0 c-0.36 0 -0.68 0 -1.04 0.04 c-0.28 0 -0.52 0.04 -0.76 0.12 c-0.6 0.2 -0.96 0.6 -1.12 1.2 c-0.04 0.16 -0.04 0.28 -0.08 0.4 c-0.04 0.68 -0.04 1.36 0 2.04 c0.04 0.16 0.04 0.32 0.12 0.48 c0.16 0.56 0.52 0.92 1.12 1.08 c0.24 0.04 0.48 0.08 0.76 0.08 l1.92 0 c0.6 0 1.16 0.04 1.72 0.12 c0.92 0.12 1.48 0.64 1.52 1.6 l0 2.88 c0 0.16 -0.04 0.28 -0.08 0.4 c-0.16 0.6 -0.52 1.04 -1.16 1.16 c-0.52 0.08 -1.08 0.12 -1.64 0.12 c-0.68 0 -1.36 0 -2.04 0.04 c-0.32 0 -0.64 0 -0.96 0.08 c-0.56 0.08 -0.96 0.44 -1.12 1.04 c-0.08 0.24 -0.12 0.48 -0.16 0.76 c-0.04 0.32 0 0.68 0 1.04 c-0.04 1.4 0 2.76 -0.04 4.16 c0 0.4 0 0.76 -0.04 1.16 c-0.04 0.24 -0.08 0.52 -0.16 0.76 c-0.12 0.36 -0.4 0.64 -0.8 0.8 c-0.16 0.08 -0.36 0.12 -0.56 0.12 c-0.32 0.08 -0.68 0.12 -1.04 0.12 l-2.6 0 z M25.709000000000003 40 c-0.32 0 -0.64 -0.04 -0.96 -0.12 c-0.16 0 -0.32 -0.04 -0.48 -0.12 c-0.4 -0.16 -0.64 -0.48 -0.68 -0.96 c0 -0.2 0 -0.44 0.08 -0.68 c0.08 -0.4 0.2 -0.8 0.32 -1.2 c1.16 -3.4 2.28 -6.84 3.4 -10.28 c1 -2.96 1.96 -5.92 2.92 -8.88 c0.4 -1.16 0.76 -2.32 1.16 -3.48 c0.12 -0.36 0.24 -0.68 0.4 -1 c0.32 -0.76 0.92 -1.12 1.72 -1.24 c0.28 -0.04 0.56 -0.04 0.88 -0.04 l1.92 0 l3.76 0 c0.36 0 0.72 0.04 1.08 0.08 c0.68 0.08 1.2 0.44 1.52 1.04 c0.16 0.36 0.32 0.68 0.44 1.08 c0.44 1.2 0.8 2.44 1.2 3.64 c0.44 1.28 0.84 2.52 1.24 3.76 c0.88 2.72 1.8 5.4 2.68 8.08 c0.8 2.44 1.6 4.92 2.4 7.36 c0.12 0.32 0.2 0.68 0.28 1.04 c0.08 0.2 0.08 0.44 0.12 0.64 c0 0.48 -0.28 0.88 -0.72 1.04 c-0.36 0.16 -0.68 0.2 -1.04 0.2 c-0.44 0.04 -0.84 0.04 -1.28 0.04 l-0.76 0 l-1.56 0 c-0.32 -0.04 -0.68 -0.08 -1.04 -0.12 c-0.76 -0.12 -1.28 -0.56 -1.56 -1.28 c-0.12 -0.28 -0.24 -0.6 -0.32 -0.88 c-0.12 -0.36 -0.24 -0.68 -0.36 -1 c-0.36 -0.84 -0.96 -1.36 -1.88 -1.44 c-0.32 -0.04 -0.6 -0.04 -0.88 -0.04 l-4.64 0 c-0.44 0 -0.84 0 -1.24 0.08 c-0.68 0.12 -1.12 0.48 -1.44 1.04 c-0.24 0.4 -0.36 0.84 -0.52 1.28 c-0.08 0.32 -0.2 0.68 -0.32 1 c-0.12 0.24 -0.24 0.44 -0.44 0.64 c-0.24 0.28 -0.56 0.48 -0.96 0.56 c-0.4 0.12 -0.84 0.16 -1.24 0.16 l-3.2 0 z M37.229 29.64 c0.44 -0.04 0.8 -0.04 1.16 -0.04 c0.28 -0.04 0.56 -0.08 0.84 -0.2 c0.4 -0.2 0.68 -0.48 0.72 -0.96 c0.04 -0.4 -0.04 -0.84 -0.12 -1.24 l-0.48 -1.68 c-0.28 -0.96 -0.56 -1.88 -0.84 -2.84 c-0.08 -0.32 -0.2 -0.64 -0.32 -0.92 c-0.08 -0.16 -0.2 -0.32 -0.32 -0.48 c-0.36 -0.4 -0.76 -0.4 -1.08 0 c-0.12 0.2 -0.24 0.4 -0.32 0.6 c-0.16 0.32 -0.28 0.64 -0.36 1 c-0.4 1.4 -0.8 2.76 -1.2 4.16 c-0.04 0.24 -0.12 0.44 -0.12 0.68 c-0.04 0.2 -0.04 0.44 -0.04 0.64 c0 0.32 0.16 0.56 0.36 0.76 c0.28 0.28 0.6 0.4 0.96 0.44 c0.4 0.04 0.84 0.04 1.16 0.08 z M61.6092 40.5564 c-0.9032 0.028008 -1.7963 -0.10961 -2.6867 -0.2384 c-0.954 -0.1384 -1.9 -0.33719 -2.848 -0.5172 c-0.38 -0.071992 -0.7516 -0.17801 -1.106 -0.33602 c-0.20762 -0.092812 -0.39363 -0.21562 -0.55524 -0.37801 c-0.2132 -0.21442 -0.33442 -0.4676 -0.35363 -0.7708 c-0.018398 -0.29121 -0.0032031 -0.5792 0.078788 -0.86044 c0.2168 -0.7432 0.488 -1.4652 0.8468 -2.152 c0.05922 -0.1132 0.13203 -0.22199 0.21324 -0.32078 c0.30121 -0.36719 0.6868 -0.57116 1.1672 -0.5904 c0.35762 -0.013984 0.70524 0.042812 1.0516 0.12121 c0.502 0.1132 1.002 0.2368 1.5072 0.3352 c0.4732 0.092384 0.9508 0.16558 1.4284 0.23277 c0.8376 0.1184 1.6692 0.0584 2.494 -0.1184 c0.4104 -0.0884 0.8032 -0.22879 1.1824 -0.41116 c0.4744 -0.22762 0.8612 -0.5628 1.1824 -0.97244 c0.58 -0.74 0.5664 -1.7736 -0.033594 -2.4968 c-0.33039 -0.39801 -0.718 -0.73404 -1.1596 -1.01 c-0.602 -0.3768 -1.2412 -0.6788 -1.8816 -0.9808 c-0.6984 -0.32922 -1.3972 -0.6576 -2.0932 -0.9912 c-0.6684 -0.32039 -1.3016 -0.7024 -1.9268 -1.0996 c-0.7652 -0.4868 -1.4576 -1.0568 -2.0756 -1.7192 c-1.2596 -1.3504 -1.9228 -2.9412 -1.9636 -4.7952 c-0.028789 -1.3156 0.27281 -2.5548 0.8152 -3.7392 c0.5052 -1.1028 1.2656 -2.0116 2.21 -2.7648 c1.176 -0.938 2.5192 -1.5428 3.9604 -1.938 c0.7768 -0.2132 1.5656 -0.37039 2.3688 -0.4476 c0.608 -0.058008 1.2116 -0.1552 1.826 -0.1568 c1.2312 -0.0032031 2.4352 0.19801 3.6296 0.4664 c0.5016 0.11238 0.9968 0.25797 1.4888 0.40956 c0.30641 0.094412 0.6028 0.22281 0.9 0.3452 c0.11801 0.0484 0.23039 0.1152 0.33758 0.18558 c0.6928 0.4528 0.9276 1.0352 0.686 1.8268 c-0.1684 0.5528 -0.3916 1.0892 -0.5984 1.63 c-0.045196 0.11879 -0.11598 0.23 -0.18719 0.33641 c-0.3732 0.5556 -0.88244 0.83956 -1.5616 0.7324 c-0.34879 -0.054804 -0.6948 -0.13281 -1.0368 -0.22121 c-0.7176 -0.18558 -1.4404 -0.33879 -2.1756 -0.434 c-0.7408 -0.096016 -1.4776 -0.084412 -2.2056 0.0916 c-0.24961 0.060392 -0.4948 0.14039 -0.7372 0.22598 c-0.4672 0.16442 -0.84436 0.4584 -1.1616 0.8348 c-0.518 0.616 -0.62084 1.5592 -0.23043 2.264 c0.092384 0.1668 0.21476 0.32039 0.34195 0.464 c0.4108 0.4624 0.8988 0.8272 1.4552 1.0972 c0.8968 0.4356 1.7924 0.8748 2.6948 1.2996 c1.2244 0.576 2.4148 1.212 3.5384 1.968 c0.8356 0.562 1.56 1.254 2.178 2.0368 c0.858 1.0876 1.3096 2.3476 1.3836 3.7416 c0.063984 1.21 -0.13203 2.3716 -0.57324 3.496 c-0.3448 0.8788 -0.828 1.6696 -1.4892 2.3476 c-0.15762 0.16121 -0.31641 0.32043 -0.4736 0.48204 c-1.0036 1.0324 -2.1956 1.7632 -3.532 2.2936 c-1.4796 0.5872 -3.0092 0.9236 -4.5864 1.0828 c-0.5764 0.0584 -1.1508 0.13039 -1.734 0.1132 z M86.091 39.995586 c-0.4196 -0.0032031 -0.8366 -0.056796 -1.2422 -0.1684 c-0.506 -0.13879 -0.83884 -0.47596 -0.9944 -0.96676 c-0.076796 -0.24199 -0.10719 -0.50436 -0.12117 -0.75956 c-0.022812 -0.418 -0.02 -0.8376 -0.02 -1.2564 c-0.0012109 -5.0272 -0.00042968 -10.054 -0.0016406 -15.082 c0 -0.4836 0 -0.9672 -0.019609 -1.45 c-0.010781 -0.25602 -0.037188 -0.51724 -0.1032 -0.76364 c-0.16238 -0.6036 -0.5436 -1.0108 -1.1556 -1.188 c-0.3752 -0.1084 -0.7588 -0.14559 -1.1468 -0.14879 c-0.612 -0.0051952 -1.2244 -0.0035938 -1.8368 -0.0071876 c-0.35442 -0.0023828 -0.7092 -0.0023828 -1.0632 -0.018789 c-0.22442 -0.010391 -0.4528 -0.028008 -0.67 -0.080392 c-0.6188 -0.14922 -1.0316 -0.52564 -1.146 -1.1664 c-0.21641 -1.2168 -0.21719 -2.4372 -0.0059764 -3.6552 c0.10441 -0.6004 0.4716 -0.98116 1.0496 -1.1392 c0.2768 -0.075588 0.5696 -0.10797 0.85724 -0.12598 c0.38558 -0.023594 0.7732 -0.018008 1.16 -0.018008 c2.6748 -0.0012109 5.3492 -0.00042968 8.024 -0.00042968 s5.3496 -0.00078124 8.0244 0.00082032 c0.3868 0 0.7748 -0.0060156 1.1596 0.023203 c0.2868 0.021992 0.5788 0.066796 0.8524 0.15238 c0.458 0.1432 0.7644 0.4664 0.9152 0.9248 c0.11199 0.33879 0.1616 0.69116 0.1652 1.0468 c0.0067968 0.6764 0.014414 1.3536 -0.0051952 2.0296 c-0.008008 0.2868 -0.053592 0.58 -0.13359 0.8556 c-0.16558 0.5712 -0.5556 0.94244 -1.138 1.0676 c-0.31238 0.067188 -0.6384 0.086408 -0.9592 0.093592 c-0.6764 0.015195 -1.3532 0.0071876 -2.03 0.011172 c-0.29 0.0016016 -0.5808 -0.004414 -0.86956 0.017578 c-0.25558 0.019609 -0.5156 0.0484 -0.762 0.11602 c-0.6812 0.18719 -1.1192 0.62916 -1.244 1.3316 c-0.072812 0.4112 -0.10402 0.8308 -0.12961 1.2484 c-0.021602 0.3532 -0.0087892 0.7084 -0.0087892 1.0628 c0 4.9308 0 9.8616 -0.0012109 14.792 c0 0.4512 -0.00078124 0.90244 -0.02 1.3532 c-0.0096092 0.22359 -0.034805 0.4532 -0.098788 0.6668 c-0.15801 0.5284 -0.5004 0.8924 -1.0412 1.048 c-0.34281 0.098788 -0.6944 0.15 -1.05 0.15199 c-1.0632 0.005586 -2.1268 0.0079688 -3.19 0.00078124 z"></path></g><g id="SvgjsG1057" featureKey="inlineSymbolFeature-0" transform="matrix(11.899564626847498,0,0,11.899564626847498,121.51018894934754,-11.748924333966553)" fill="#10c893"><title xmlns="http://www.w3.org/2000/svg">abstract</title><g xmlns="http://www.w3.org/2000/svg"><g><path d="M4.56576,3.4977c-.07875-.05621-.14425-.1018-.16046-.08432-.01589.01671.02492.09646.105.1637.07971.06787.16731.08655.18182.05814C4.707,3.60652,4.64417,3.554,4.56576,3.4977Z"></path><path d="M4.32354,3.53219c-.07148-.07522-.13012-.12067-.1425-.09063-.012.02956.03125.12568.10766.2051.0762.08.15283.10771.1599.0734C4.456,3.68568,4.39483,3.60756,4.32354,3.53219Z"></path><path d="M4.08307,3.536c-.06765-.0799-.12363-.11216-.13314-.06568a.37136.37136,0,0,0,.11327.23535c.0752.08157.144.10262.14566.05491A.48615.48615,0,0,0,4.08307,3.536Z"></path><path d="M3.83748,3.53784c-.067-.076-.12342-.08874-.13046-.02506a.39532.39532,0,0,0,.12191.25655c.07618.077.14.08291.13769.01849A.51114.51114,0,0,0,3.83748,3.53784Z"></path><path d="M3.582,3.54712c-.06887-.06724-.12772-.05844-.13277.02168a.393.393,0,0,0,.13261.27115c.07894.069.14029.05547.13517-.026A.48327.48327,0,0,0,3.582,3.54712Z"></path><path d="M3.31327,3.56349c-.0727-.05655-.13564-.02674-.13925.068a.37568.37568,0,0,0,.14433.28124c.08319.05989.14457.02584.13777-.072A.43376.43376,0,0,0,3.31327,3.56349Z"></path><path d="M3.037,3.6056c-.07474-.057-.14207-.028-.14991.06542a.36077.36077,0,0,0,.13883.28262c.08463.06256.15172.031.14957-.06765A.40629.40629,0,0,0,3.037,3.6056Z"></path><path d="M2.74469,3.65646c-.07551-.06356-.14624-.048-.15948.03364a.34244.34244,0,0,0,.12655.27374c.08394.07036.15751.05551.162-.03286A.38533.38533,0,0,0,2.74469,3.65646Z"></path><path d="M2.43349,3.6921c-.07506-.07-.14823-.06891-.16639.00011a.31751.31751,0,0,0,.11256.26127c.08176.07693.16022.07957.17135.00375A.35911.35911,0,0,0,2.43349,3.6921Z"></path><path d="M2.10758,3.709c-.07167-.07864-.14583-.09494-.1698-.04043a.28523.28523,0,0,0,.09118.24727c.07622.08443.15792.10775.177.04752A.3271.3271,0,0,0,2.10758,3.709Z"></path><path d="M1.76357,3.69786c-.06736-.08239-.1398-.11083-.16641-.0685-.0263.04244.005.14239.075.22878s.15026.1233.174.07671C1.87,3.88851,1.83081,3.77991,1.76357,3.69786Z"></path><path d="M1.41074,3.66244c-.06124-.08409-.13-.12274-.1576-.091-.02737.03186-.00282.12341.05927.2097.06195.0861.138.13322.16456.09917S1.47185,3.74642,1.41074,3.66244Z"></path><path d="M1.05666,3.60764c-.054-.08447-.11707-.13121-.14428-.10845-.027.023-.008.10759.04554.19254s.12228.13838.14962.1148S1.1105,3.69173,1.05666,3.60764Z"></path><path d="M.70929,3.53947C.66284,3.45515.60622,3.40095.58073,3.41654s-.01047.09531.03513.17963c.04542.08432.10545.14191.13172.12635S.75567,3.62375.70929,3.53947Z"></path><ellipse cx="0.33283" cy="3.47913" rx="0.0456" ry="0.1719" transform="translate(-1.27067 0.37367) rotate(-21.84494)"></ellipse></g><g><path d="M4.30661,3.0675c-.04185-.07834-.07873-.13856-.09568-.12516-.0165.013-.0038.09828.04148.18223.045.08435.10251.12942.11569.11057C4.38154,3.216,4.34817,3.14617,4.30661,3.0675Z"></path><path d="M4.11919,3.041c-.0406-.08484-.07982-.13626-.09778-.10845a.29915.29915,0,0,0,.0453.21211c.04693.08725.10214.12806.1133.09809A.42083.42083,0,0,0,4.11919,3.041Z"></path><path d="M3.91446,3.01281c-.04227-.08365-.08654-.11925-.10543-.07537a.32861.32861,0,0,0,.05319.23428c.05083.08428.10567.1128.11572.06869A.46285.46285,0,0,0,3.91446,3.01281Z"></path><path d="M3.6914,2.99276c-.04644-.07741-.09741-.09334-.11672-.03345a.33259.33259,0,0,0,.06449.24942c.05614.07745.11215.08937.12164.02967A.44937.44937,0,0,0,3.6914,2.99276Z"></path><path d="M3.45,2.98318c-.0524-.06794-.11085-.06282-.13012.012a.32.32,0,0,0,.07812.259c.06244.06839.1209.0613.13012-.01352A.40682.40682,0,0,0,3.45,2.98318Z"></path><path d="M3.191,2.98244c-.05973-.05677-.12581-.03137-.1447.05647a.29937.29937,0,0,0,.09289.26432c.06945.05851.1315.03237.1408-.05692A.35579.35579,0,0,0,3.191,2.98244Z"></path><path d="M2.9192,3.00936c-.06265-.0558-.13248-.03011-.1535.05614a.28456.28456,0,0,0,.09215.26153c.07142.05889.13822.034.15057-.0551A.32873.32873,0,0,0,2.9192,3.00936Z"></path><path d="M2.63158,3.04942c-.06335-.05985-.13373-.04541-.15669.03033a.26986.26986,0,0,0,.086.25043c.07062.06375.14093.05187.15658-.02755A.30929.30929,0,0,0,2.63158,3.04942Z"></path><path d="M2.33013,3.0829c-.063-.064-.13333-.06115-.158.00379a.253.253,0,0,0,.07866.23747c.0687.0678.14124.06894.16.00037A.28761.28761,0,0,0,2.33013,3.0829Z"></path><path d="M2.01936,3.10823c-.06009-.07047-.12936-.0822-.15671-.02944a.23449.23449,0,0,0,.0645.22533c.06412.0734.13746.09067.1607.0349A.26643.26643,0,0,0,2.01936,3.10823Z"></path><path d="M1.69589,3.11759c-.05722-.07315-.12426-.09512-.15216-.05239-.0277.04262-.004.13518.05568.21037s.13122.10288.15651.058A.24082.24082,0,0,0,1.69589,3.11759Z"></path><path d="M1.36587,3.11313c-.05331-.07507-.1172-.10615-.14486-.07255-.02742.03342-.00749.11989.047.19607s.12252.11254.14885.07778S1.41915,3.18794,1.36587,3.11313Z"></path><path d="M1.033,3.096c-.04878-.07652-.10851-.1161-.13519-.09067s-.00978.10693.03923.18386c.04883.077.11181.12044.13814.09438S1.08173,3.17235,1.033,3.096Z"></path><path d="M.70132,3.06765c-.04393-.07827-.09905-.126-.12415-.10778s-.01059.09635.03308.17484.10046.128.12579.10945S.74523,3.146.70132,3.06765Z"></path><ellipse cx="0.33238" cy="3.0506" rx="0.04742" ry="0.16412" transform="translate(-1.36821 0.49626) rotate(-27.43615)"></ellipse></g><g><path d="M4.23719,2.58026c-.00781-.08656-.0207-.1533-.04153-.14445-.02049.00873-.03723.0936-.02487.18464.012.09135.04475.15013.06069.1368A.36726.36726,0,0,0,4.23719,2.58026Z"></path><path d="M4.07672,2.51316c-.01129-.08922-.03406-.14532-.06013-.12046a.29867.29867,0,0,0-.02.21323c.01855.09126.05591.13986.07421.11331A.43431.43431,0,0,0,4.07672,2.51316Z"></path><path d="M3.88929,2.4588c-.01761-.08649-.05234-.12581-.08271-.08387a.31749.31749,0,0,0-.01.23457c.02689.08645.07025.11979.09114.07829A.44686.44686,0,0,0,3.88929,2.4588Z"></path><path d="M3.67628,2.42115c-.02638-.07947-.07376-.09818-.10724-.03947a.30892.30892,0,0,0,.00444.24846c.03637.07825.08644.09343.10979.03624A.41547.41547,0,0,0,3.67628,2.42115Z"></path><path d="M3.43983,2.40029c-.03667-.06939-.09664-.06579-.13174.00819A.28532.28532,0,0,0,3.33,2.6646c.04642.06789.10365.06358.129-.00869A.36484.36484,0,0,0,3.43983,2.40029Z"></path><path d="M3.18257,2.39383c-.04785-.05738-.11954-.03184-.155.05534a.25682.25682,0,0,0,.04113.25871c.05665.05677.12116.03289.14811-.05348A.3095.3095,0,0,0,3.18257,2.39383Z"></path><path d="M2.90666,2.42056c-.05219-.055-.12709-.02783-.16259.05814a.24225.24225,0,0,0,.04647.25368c.05973.05551.12823.03145.15637-.05482A.2834.2834,0,0,0,2.90666,2.42056Z"></path><path d="M2.61351,2.46625a.092.092,0,0,0-.16033.0356.23.23,0,0,0,.04764.24126.08729.08729,0,0,0,.15679-.03141A.26471.26471,0,0,0,2.61351,2.46625Z"></path><path d="M2.30914,2.51134a.08873.08873,0,0,0-.15706.01206.21763.21763,0,0,0,.04773.22773c.05855.06171.12811.05952.15564-.00746A.246.246,0,0,0,2.30914,2.51134Z"></path><path d="M1.99835,2.55389c-.05145-.06577-.11954-.07286-.15189-.01864a.20786.20786,0,0,0,.041.21636c.05513.06675.12373.07856.15242.02339A.23305.23305,0,0,0,1.99835,2.55389Z"></path><path d="M1.67817,2.58571c-.0502-.068-.11545-.08473-.14607-.04017a.19561.19561,0,0,0,.03925.20263c.05254.06861.11909.08981.14728.04444A.2143.2143,0,0,0,1.67817,2.58571Z"></path><path d="M1.35348,2.6073c-.04828-.06988-.1104-.09585-.1393-.06013s-.01255.11981.03693.19011.113.09995.14051.06379S1.40162,2.67715,1.35348,2.6073Z"></path><path d="M1.02624,2.61779C.98061,2.54581.922,2.511.895,2.53852s-.01185.10745.03432.17972.10579.10956.13224.08172S1.07186,2.68972,1.02624,2.61779Z"></path><path d="M.699,2.6163c-.04263-.07467-.0973-.11836-.12248-.0982-.025.02012-.011.09705.03166.17207S.706,2.8099.7311,2.78934.74162,2.691.699,2.6163Z"></path><ellipse cx="0.33222" cy="2.6261" rx="0.04872" ry="0.15971" transform="translate(-1.28584 0.53119) rotate(-30.47155)"></ellipse></g><g><path d="M4.359,2.09983c.02614-.08686.03815-.16219.01344-.16535-.02439-.00316-.07211.07277-.09366.16591-.02192.09319-.01313.16364.0067.16067C4.3056,2.2579,4.33257,2.187,4.359,2.09983Z"></path><path d="M4.22324,1.95315c.01966-.09295.01421-.15984-.02136-.14346a.31344.31344,0,0,0-.09175.20675c-.01177.09556.008.15386.03523.13528A.42858.42858,0,0,0,4.22324,1.95315Z"></path><path d="M4.0472,1.84032c.00856-.0922-.01724-.14094-.062-.10282a.35352.35352,0,0,0-.0808.23734c.00151.09113.03438.13132.06871.09477A.46443.46443,0,0,0,4.0472,1.84032Z"></path><path d="M3.83337,1.76722c-.00585-.08514-.05261-.10893-.10373-.04927a.34217.34217,0,0,0-.06226.25646c.01639.08127.06281.09959.10339.04414A.43688.43688,0,0,0,3.83337,1.76722Z"></path><path d="M3.58644,1.73358c-.02216-.073-.08837-.06859-.14311.01036a.29989.29989,0,0,0-.03826.26491c.03167.068.09108.0628.13636-.01082A.37394.37394,0,0,0,3.58644,1.73358Z"></path><path d="M3.31216,1.73427c-.03892-.05777-.122-.02517-.17738.0695a.25071.25071,0,0,0-.01119.26519c.04647.05341.11773.02482.166-.06548A.302.302,0,0,0,3.31216,1.73427Z"></path><path d="M3.01156,1.78509c-.04536-.0528-.13092-.01558-.18342.07867a.22944.22944,0,0,0,.0026.2578c.05139.05011.12586.01868.17268-.07284A.26916.26916,0,0,0,3.01156,1.78509Z"></path><path d="M2.69208,1.86635c-.04714-.054-.12781-.02645-.17465.05727a.21547.21547,0,0,0,.01289.24347c.05195.05259.1247.031.16673-.05141A.24655.24655,0,0,0,2.69208,1.86635Z"></path><path d="M2.36492,1.952c-.0482-.056-.12419-.03971-.16582.03264a.203.203,0,0,0,.02132.2284.093.093,0,0,0,.16046-.02718A.22682.22682,0,0,0,2.36492,1.952Z"></path><path d="M2.03562,2.03541a.08937.08937,0,0,0-.15579-.001.19724.19724,0,0,0,.02159.21672c.04967.06147.11748.06521.15285.00574A.21765.21765,0,0,0,2.03562,2.03541Z"></path><path d="M1.70171,2.10521c-.04646-.06431-.11321-.07466-.14764-.026a.18686.18686,0,0,0,.02638.20235c.04856.06423.1136.07858.14589.02983A.20133.20133,0,0,0,1.70171,2.10521Z"></path><path d="M1.36712,2.1587c-.04572-.067-.10871-.0884-.13976-.04992a.17936.17936,0,0,0,.02943.18963c.04694.06715.109.09163.13871.053A.18937.18937,0,0,0,1.36712,2.1587Z"></path><path d="M1.0332,2.1926C.98886,2.12244.92964,2.09018.90155,2.11913s-.014.10882.03087.17942.10353.10475.13094.07528S1.07749,2.26262,1.0332,2.1926Z"></path><path d="M.70157,2.20347c-.04227-.07413-.09746-.11732-.123-.09709s-.01161.09744.03078.17233.09714.11872.12252.09763S.74382,2.27762.70157,2.20347Z"></path><ellipse cx="0.33231" cy="2.21043" rx="0.04807" ry="0.16199" transform="translate(-1.02419 0.43382) rotate(-28.81313)"></ellipse></g><g><path d="M4.67228,1.69491c.06015-.07767.09666-.1606.06765-.18124-.02864-.02059-.107.03882-.16176.12719-.05519.08847-.07036.16537-.04708.17543C4.55475,1.82616,4.6118,1.7729,4.67228,1.69491Z"></path><path d="M4.55818,1.4469c.04934-.0944.05941-.17641.01366-.17318-.04549.00317-.12148.09382-.16152.19284-.04025.0993-.03651.16717-.00029.15958C4.4464,1.61819,4.5086,1.54159,4.55818,1.4469Z"></path><path d="M4.3851,1.25006c.03255-.10062.01291-.16522-.0469-.13353a.40863.40863,0,0,0-.14853.243c-.02123.099.00364.14857.05195.11924A.47548.47548,0,0,0,4.3851,1.25006Z"></path><path d="M4.15808,1.11671c.01164-.09629-.0377-.13121-.10758-.07078a.41865.41865,0,0,0-.125.27488c-.00037.08957.04573.11424.10437.061A.48419.48419,0,0,0,4.15808,1.11671Z"></path><path d="M3.88536,1.04888c-.01113-.08324-.08747-.08216-.16309.004a.36527.36527,0,0,0-.09411.2893c.02075.07409.08649.07042.15267-.00622A.42871.42871,0,0,0,3.88536,1.04888Z"></path><path d="M3.57674,1.04008c-.03406-.06438-.13288-.0266-.20991.08a.2893.2893,0,0,0-.05883.2898c.04047.05578.12334.02341.19418-.07452A.34245.34245,0,0,0,3.57674,1.04008Z"></path><path d="M3.23268,1.10491c-.04256-.05606-.14353-.00912-.21506.09846-.07158.1073-.08423.23-.03725.28.04724.05.13288.01158.20016-.08992C3.24751,1.29222,3.27546,1.16093,3.23268,1.10491Z"></path><path d="M2.86718,1.21741c-.04482-.05514-.13774-.0168-.19946.07917a.23171.23171,0,0,0-.01881.26186c.04836.05123.12932.02168.18767-.0706A.26594.26594,0,0,0,2.86718,1.21741Z"></path><path d="M2.49747,1.34338c-.04626-.05563-.13159-.02915-.18439.0538a.21136.21136,0,0,0-.0027.24254c.049.05335.12528.03449.17534-.04608A.23651.23651,0,0,0,2.49747,1.34338Z"></path><path d="M2.13075,1.47055a.09809.09809,0,0,0-.16814.017.20254.20254,0,0,0,.00377.22758.09323.09323,0,0,0,.16185-.01077A.22286.22286,0,0,0,2.13075,1.47055Z"></path><path d="M1.7656,1.58323a.0915.0915,0,0,0-.15615-.01093.187.187,0,0,0,.01483.20929c.04674.06191.11353.07023.15161.01583A.20067.20067,0,0,0,1.7656,1.58323Z"></path><path d="M1.40611,1.67533c-.045-.06507-.11133-.0809-.14565-.038a.17624.17624,0,0,0,.023.19331c.04606.0649.10915.08462.14234.04182A.18533.18533,0,0,0,1.40611,1.67533Z"></path><path d="M1.05336,1.741C1.009,1.67265.94747,1.64445.91756,1.6761S.901,1.788.94582,1.85671s.10424.09937.13356.06726S1.09776,1.80915,1.05336,1.741Z"></path><path d="M.70884,1.77435C.66608,1.70167.60942,1.66066.58316,1.68208s-.01238.09841.03042.1722.09818.11554.12438.093S.75158,1.847.70884,1.77435Z"></path><ellipse cx="0.33267" cy="1.79162" rx="0.04838" ry="0.16208" transform="matrix(0.87629, -0.48178, 0.48178, 0.87629, -0.82202, 0.38191)"></ellipse></g></g></g><g id="SvgjsG1058" featureKey="nameRightFeature-0" transform="matrix(1.2856542070398311,0,0,1.2856542070398311,182.12530362038723,-15.427850484477974)" fill="#10c869"><path d="M26.134 39.9976172 c-0.8056 0 -1.611 -0.00019531 -2.4166 -0.00097656 c-0.4196 0 -0.8352 -0.038008 -1.2492 -0.11281 c-0.73 -0.13199 -1.2276 -0.5432 -1.4936 -1.2276 c-0.13961 -0.35922 -0.25242 -0.73 -0.36762 -1.0984 c-0.18238 -0.584 -0.34879 -1.1736 -0.5384 -1.7552 c-0.079608 -0.24359 -0.17402 -0.49 -0.30844 -0.7064 c-0.4528 -0.7292 -0.94244 -0.7228 -1.3964 -0.014024 c-0.13719 0.21442 -0.2332 0.46084 -0.3132 0.70404 c-0.20078 0.612 -0.37758 1.232 -0.57276 1.8456 c-0.11719 0.36801 -0.23558 0.7368 -0.37957 1.0944 c-0.26199 0.6496 -0.754 1.036 -1.4424 1.1488 c-0.38 0.061992 -0.7672 0.11199 -1.1516 0.1152 c-1.4816 0.012812 -2.964 0.0056252 -4.446 0.0032422 c-0.42 0 -0.8352 -0.047188 -1.2456 -0.14238 c-0.6092 -0.14121 -1.0368 -0.50044 -1.2884 -1.066 c-0.10441 -0.2348 -0.19203 -0.4784 -0.26965 -0.7236 c-0.1068 -0.33762 -0.20199 -0.6796 -0.2948 -1.0216 c-0.926 -3.4204 -1.8496 -6.842 -2.7768 -10.263 c-0.7332 -2.7052 -1.4696 -5.4096 -2.2064 -8.114 c-0.33879 -1.2432 -0.68276 -2.4852 -1.0208 -3.7288 c-0.076016 -0.27961 -0.1416 -0.5624 -0.2048 -0.84524 c-0.070392 -0.3168 -0.084804 -0.638 -0.058008 -0.9612 c0.038789 -0.4672 0.2916 -0.7792 0.7212 -0.9368 c0.20961 -0.076796 0.4348 -0.12078 0.6568 -0.15078 c0.22238 -0.030391 0.45 -0.033203 0.6752 -0.033203 c1.1276 -0.0032031 2.2552 -0.0048048 3.3828 0.0012109 c0.28922 0.0012109 0.58044 0.017226 0.86724 0.053244 c0.774 0.096408 1.308 0.5128 1.5728 1.2492 c0.1084 0.30281 0.1968 0.61404 0.2716 0.92684 c0.1348 0.5636 0.2548 1.1312 0.3768 1.698 c0.8332 3.8744 1.666 7.7484 2.496 11.623 c0.1152 0.5376 0.27641 1.0596 0.4748 1.5712 c0.081992 0.21121 0.19359 0.4048 0.36359 0.5632 c0.16801 0.1568 0.4416 0.1784 0.6196 0.040392 c0.20961 -0.16238 0.3668 -0.3652 0.4496 -0.6152 c0.13199 -0.39719 0.2752 -0.79276 0.37 -1.1996 c0.27801 -1.192 0.5368 -2.3888 0.7988 -3.5848 c0.1516 -0.692 0.30039 -1.3852 0.44116 -2.0796 c0.10199 -0.5052 0.19961 -1.012 0.27961 -1.5208 c0.1116 -0.7068 0.096016 -1.414 -0.073592 -2.1116 c-0.13719 -0.5636 -0.28797 -1.1236 -0.43596 -1.6844 c-0.22199 -0.8408 -0.4464 -1.6812 -0.6704 -2.5216 c-0.10879 -0.408 -0.15879 -0.8212 -0.1332 -1.244 c0.030781 -0.5092 0.3052 -0.8332 0.7644 -1.0148 c0.1184 -0.046796 0.2468 -0.073204 0.37281 -0.096016 c0.1268 -0.022383 0.25602 -0.03918 0.38442 -0.03918 c1.4172 -0.0039844 2.8348 -0.0067968 4.2524 -0.0032031 c0.3232 0 0.6404 0.05922 0.952 0.14961 c0.4948 0.14359 0.84244 0.4588 1.0636 0.9164 c0.16922 0.35039 0.26602 0.7252 0.34723 1.104 c0.24238 1.1344 0.484 2.2688 0.7288 3.4024 c0.6524 3.0232 1.308 6.0456 1.9592 9.0692 c0.10879 0.5052 0.25117 0.9996 0.43316 1.4828 c0.10441 0.2784 0.27203 0.50916 0.52844 0.6704 c0.12602 0.079608 0.33524 0.073204 0.456 -0.010781 c0.19238 -0.1332 0.32039 -0.31602 0.4148 -0.52364 c0.2152 -0.4712 0.3552 -0.9676 0.4736 -1.4696 c0.13359 -0.5644 0.26078 -1.13 0.38238 -1.6972 c0.486 -2.268 0.96564 -4.5376 1.4536 -6.8052 c0.2984 -1.386 0.602 -2.7704 0.9164 -4.1528 c0.078008 -0.34398 0.18121 -0.6868 0.3168 -1.012 c0.22442 -0.5388 0.63364 -0.8792 1.2116 -1.0096 c0.34762 -0.0784 0.6984 -0.12281 1.0536 -0.12359 c1.2244 -0.0019922 2.4488 -0.0027734 3.6728 0.0024219 c0.2248 0.00078124 0.45084 0.022774 0.67364 0.053984 c0.1584 0.022383 0.31801 0.061992 0.4664 0.12078 c0.424 0.1668 0.684 0.4688 0.7236 0.9372 c0.035195 0.4224 -0.012422 0.8356 -0.12242 1.244 c-0.2684 0.9956 -0.5296 1.9928 -0.79884 2.988 c-0.30281 1.1196 -0.6136 2.2368 -0.91756 3.3564 c-0.5488 2.0208 -1.094 4.0424 -1.6424 6.0636 c-0.6748 2.4876 -1.3524 4.974 -2.0268 7.4616 c-0.3032 1.1196 -0.598 2.2412 -0.90404 3.36 c-0.084804 0.31039 -0.19082 0.6152 -0.29641 0.9192 c-0.29398 0.8484 -0.8956 1.3148 -1.7844 1.4068 c-0.35199 0.036406 -0.70596 0.066796 -1.0596 0.071212 c-0.8376 0.010391 -1.6752 0.0032031 -2.5128 0.0032031 z M42.469 40 c-0.32 0 -0.64 -0.04 -0.96 -0.12 c-0.16 0 -0.32 -0.04 -0.48 -0.12 c-0.4 -0.16 -0.64 -0.48 -0.68 -0.96 c0 -0.2 0 -0.44 0.08 -0.68 c0.08 -0.4 0.2 -0.8 0.32 -1.2 c1.16 -3.4 2.28 -6.84 3.4 -10.28 c1 -2.96 1.96 -5.92 2.92 -8.88 c0.4 -1.16 0.76 -2.32 1.16 -3.48 c0.12 -0.36 0.24 -0.68 0.4 -1 c0.32 -0.76 0.92 -1.12 1.72 -1.24 c0.28 -0.04 0.56 -0.04 0.88 -0.04 l1.92 0 l3.76 0 c0.36 0 0.72 0.04 1.08 0.08 c0.68 0.08 1.2 0.44 1.52 1.04 c0.16 0.36 0.32 0.68 0.44 1.08 c0.44 1.2 0.8 2.44 1.2 3.64 c0.44 1.28 0.84 2.52 1.24 3.76 c0.88 2.72 1.8 5.4 2.68 8.08 c0.8 2.44 1.6 4.92 2.4 7.36 c0.12 0.32 0.2 0.68 0.28 1.04 c0.08 0.2 0.08 0.44 0.12 0.64 c0 0.48 -0.28 0.88 -0.72 1.04 c-0.36 0.16 -0.68 0.2 -1.04 0.2 c-0.44 0.04 -0.84 0.04 -1.28 0.04 l-0.76 0 l-1.56 0 c-0.32 -0.04 -0.68 -0.08 -1.04 -0.12 c-0.76 -0.12 -1.28 -0.56 -1.56 -1.28 c-0.12 -0.28 -0.24 -0.6 -0.32 -0.88 c-0.12 -0.36 -0.24 -0.68 -0.36 -1 c-0.36 -0.84 -0.96 -1.36 -1.88 -1.44 c-0.32 -0.04 -0.6 -0.04 -0.88 -0.04 l-4.64 0 c-0.44 0 -0.84 0 -1.24 0.08 c-0.68 0.12 -1.12 0.48 -1.44 1.04 c-0.24 0.4 -0.36 0.84 -0.52 1.28 c-0.08 0.32 -0.2 0.68 -0.32 1 c-0.12 0.24 -0.24 0.44 -0.44 0.64 c-0.24 0.28 -0.56 0.48 -0.96 0.56 c-0.4 0.12 -0.84 0.16 -1.24 0.16 l-3.2 0 z M53.989000000000004 29.64 c0.44 -0.04 0.8 -0.04 1.16 -0.04 c0.28 -0.04 0.56 -0.08 0.84 -0.2 c0.4 -0.2 0.68 -0.48 0.72 -0.96 c0.04 -0.4 -0.04 -0.84 -0.12 -1.24 l-0.48 -1.68 c-0.28 -0.96 -0.56 -1.88 -0.84 -2.84 c-0.08 -0.32 -0.2 -0.64 -0.32 -0.92 c-0.08 -0.16 -0.2 -0.32 -0.32 -0.48 c-0.36 -0.4 -0.76 -0.4 -1.08 0 c-0.12 0.2 -0.24 0.4 -0.32 0.6 c-0.16 0.32 -0.28 0.64 -0.36 1 c-0.4 1.4 -0.8 2.76 -1.2 4.16 c-0.04 0.24 -0.12 0.44 -0.12 0.68 c-0.04 0.2 -0.04 0.44 -0.04 0.64 c0 0.32 0.16 0.56 0.36 0.76 c0.28 0.28 0.6 0.4 0.96 0.44 c0.4 0.04 0.84 0.04 1.16 0.08 z M80.744 40 c-0.8372 0 -1.6742 0.0025391 -2.5114 0.00054688 c-0.452 -0.0012109 -0.9 -0.042812 -1.342 -0.1432 c-0.6028 -0.13719 -1.046 -0.4852 -1.3352 -1.024 c-0.1216 -0.22641 -0.22039 -0.46564 -0.31359 -0.70524 c-0.093204 -0.24 -0.17082 -0.4864 -0.24762 -0.732 c-0.4804 -1.5368 -0.95756 -3.0744 -1.4376 -4.6112 c-0.3552 -1.1372 -0.7128 -2.2736 -1.0692 -3.4104 c-0.33719 -1.0756 -0.6732 -2.1512 -1.0124 -3.226 c-0.94 -2.9788 -1.8828 -5.9564 -2.822 -8.9352 c-0.28078 -0.8904 -0.552 -1.7844 -0.8332 -2.6748 c-0.1368 -0.4336 -0.22199 -0.872 -0.19801 -1.3296 c0.028008 -0.5356 0.31359 -0.9032 0.8292 -1.058 c0.34281 -0.1032 0.6948 -0.1348 1.05 -0.13762 c0.7404 -0.0060156 1.4812 -0.008828 2.2216 -0.008828 c0.5152 0 1.0308 0.0039844 1.5456 0.012774 c0.32281 0.005586 0.6416 0.045196 0.954 0.13441 c0.5952 0.17039 1.0292 0.5272 1.2536 1.1076 c0.12762 0.32961 0.23602 0.6684 0.32562 1.0104 c0.4408 1.682 0.87476 3.366 1.3076 5.05 c0.7452 2.9004 1.484 5.8024 2.234 8.7016 c0.1452 0.5608 0.32039 1.114 0.4988 1.6648 c0.068788 0.21238 0.16719 0.4208 0.28719 0.6088 c0.083204 0.13 0.2148 0.23879 0.3448 0.32758 c0.20398 0.13961 0.54596 0.095624 0.71316 -0.08676 c0.10762 -0.1168 0.21402 -0.24558 0.27801 -0.3884 c0.22359 -0.5 0.4116 -1.014 0.5472 -1.5464 c0.20641 -0.8112 0.4152 -1.622 0.6244 -2.4324 c0.32238 -1.2472 0.6472 -2.4932 0.9684 -3.7408 c0.674 -2.6196 1.3444 -5.24 2.0208 -7.8588 c0.0884 -0.34238 0.19039 -0.68276 0.3084 -1.016 c0.074412 -0.21121 0.17363 -0.4176 0.29004 -0.60884 c0.26281 -0.4312 0.64244 -0.7184 1.1412 -0.8256 c0.21922 -0.047188 0.4448 -0.09 0.668 -0.091212 c1.4168 -0.0092188 2.8336 -0.01043 4.25 -0.0032422 c0.2232 0.0012109 0.4492 0.042424 0.668 0.09082 c0.1548 0.034414 0.30801 0.097228 0.448 0.17324 c0.3016 0.1632 0.48084 0.4188 0.5176 0.7664 c0.034414 0.32398 0.014805 0.64436 -0.067576 0.95836 c-0.065588 0.24922 -0.14359 0.4948 -0.22121 0.7404 c-0.5936 1.8724 -1.1928 3.7432 -1.7812 5.6172 c-0.6656 2.1196 -1.3188 4.2432 -1.9832 6.3632 c-0.6836 2.1816 -1.3736 4.3612 -2.0624 6.5408 c-0.466 1.474 -0.9308 2.948 -1.406 4.4188 c-0.1184 0.36641 -0.25961 0.728 -0.41724 1.0796 c-0.26801 0.5984 -0.732 0.9636 -1.3784 1.0988 c-0.412 0.086016 -0.82756 0.1248 -1.2472 0.12602 c-0.8692 0.0028125 -1.7388 0.00082032 -2.6084 0.00082032 l0 0.0016016 z M100.807 40 c-0.6 0 -1.16 0 -1.72 -0.16 c-0.32 -0.08 -0.56 -0.2 -0.76 -0.4 c-0.2 -0.24 -0.36 -0.48 -0.4 -0.76 c-0.04 -0.24 -0.08 -0.44 -0.08 -0.68 l0 -1.16 l0 -10.84 l0 -11 c0 -0.4 0 -0.84 0.04 -1.24 c0 -0.28 0.04 -0.52 0.12 -0.76 c0.16 -0.4 0.4 -0.68 0.8 -0.8 c0.32 -0.12 0.64 -0.16 0.96 -0.16 c0.36 -0.04 0.72 -0.04 1.04 -0.04 l13.56 0 c0.32 0 0.68 0 1.04 0.04 c0.28 0 0.52 0.04 0.76 0.12 c0.56 0.12 0.88 0.52 1 1.04 c0.04 0.2 0.08 0.4 0.08 0.6 l0 2.6 c0 0.16 -0.04 0.32 -0.04 0.48 c-0.12 0.68 -0.6 1.16 -1.28 1.24 c-0.24 0.04 -0.48 0.08 -0.68 0.08 l-1.16 0 l-5.32 0 c-0.36 0 -0.72 0 -1.08 0.04 c-0.32 0 -0.64 0.04 -0.92 0.16 c-0.48 0.16 -0.76 0.48 -0.96 0.92 c0 0.08 -0.04 0.16 -0.08 0.28 c-0.12 0.68 -0.12 1.4 -0.04 2.12 l0.12 0.36 c0.2 0.6 0.6 0.96 1.24 1.08 c0.32 0.08 0.64 0.08 0.96 0.08 l2.32 0 c0.48 0 0.96 0.04 1.44 0.12 c0.16 0.04 0.32 0.04 0.48 0.12 c0.4 0.12 0.72 0.4 0.84 0.84 c0.12 0.32 0.2 0.68 0.2 1.04 l0 2.12 c0 0.32 -0.08 0.64 -0.16 0.96 c-0.16 0.48 -0.48 0.76 -0.96 0.88 c-0.12 0.08 -0.28 0.08 -0.44 0.12 c-0.64 0.04 -1.28 0.12 -1.96 0.12 c-0.6 -0.04 -1.2 -0.04 -1.8 0 c-0.32 0 -0.6 0 -0.88 0.04 c-0.64 0.08 -1.04 0.48 -1.28 1.08 s-0.24 1.24 0 1.88 s0.64 1.04 1.36 1.08 c0.92 0.08 1.84 0.12 2.76 0.16 l4.64 0 c0.44 0 0.84 0 1.28 0.04 c0.24 0.04 0.48 0.08 0.72 0.24 c0.36 0.28 0.6 0.6 0.64 1.04 c0.04 0.16 0.04 0.32 0.04 0.48 l0 2.52 c0 0.2 -0.04 0.44 -0.08 0.68 c-0.12 0.52 -0.44 0.84 -0.92 1 c-0.36 0.12 -0.68 0.16 -1.04 0.16 c-0.28 0.04 -0.6 0.04 -0.88 0.04 l-13.52 0 z"></path></g>
			</g>
		</svg>
	